<?xml version="1.0" encoding="UTF-8"?>
<svg version="1.1" xmlns="http://www.w3.org/2000/svg" width="200" height="200">
<path d="M0 0 C2 0 2 0 3.7265625 1.6796875 C4.35304688 2.40414062 4.97953125 3.12859375 5.625 3.875 C6.57246094 4.95394531 6.57246094 4.95394531 7.5390625 6.0546875 C9 8 9 8 9 10 C9.59167969 10.26554687 10.18335937 10.53109375 10.79296875 10.8046875 C16.59908809 13.94924063 20.84690407 19.92651454 25.08984375 24.875 C27.99912336 28.1114992 31.1362875 31.10722708 34.27734375 34.1171875 C36 36 36 36 36 38 C36.66 38 37.32 38 38 38 C39.515625 39.57421875 39.515625 39.57421875 41.25 41.6875 C44.25954469 45.23964603 47.33524535 48.13970369 51 51 C51.495 50.01 51.495 50.01 52 49 C52.66 49 53.32 49 54 49 C54.37125 47.948125 54.37125 47.948125 54.75 46.875 C56.17180238 43.60485452 57.87246288 40.858878 60 38 C60.66 38 61.32 38 62 38 C62.103125 37.38125 62.20625 36.7625 62.3125 36.125 C63 34 63 34 66 32 C66.65226563 32.9178125 67.30453125 33.835625 67.9765625 34.78125 C68.85921397 36.020948 69.74203777 37.26052332 70.625 38.5 C71.0792334 39.1384082 71.5334668 39.77681641 72.00146484 40.43457031 C74.93060805 44.53932769 77.91999929 48.58342451 81.0390625 52.546875 C82 54 82 54 82 56 C82.66 56 83.32 56 84 56 C84.33 56.99 84.66 57.98 85 59 C86.3174534 60.34902635 87.65362478 61.67983739 89 63 C90.46829954 64.8509802 91.90374388 66.72830882 93.3125 68.625 C93.70638916 69.15496582 94.10027832 69.68493164 94.50610352 70.23095703 C97.43946195 74.1955975 100.28841752 78.21370858 103.09375 82.26953125 C104.59883202 84.42537619 106.11998255 86.56569478 107.65625 88.69921875 C108.34569702 89.65755615 108.34569702 89.65755615 109.04907227 90.63525391 C109.96438945 91.90578562 110.88150455 93.17502428 111.80053711 94.44287109 C115 98.88970851 115 98.88970851 115 100 C112.24894578 100.10812003 109.50214913 100.18734945 106.75 100.25 C105.97269531 100.28351563 105.19539062 100.31703125 104.39453125 100.3515625 C98.62713276 100.45015051 98.62713276 100.45015051 95.453125 98.171875 C94 96 94 96 94 93 C93.01 92.67 92.02 92.34 91 92 C91 91.01 91 90.02 91 89 C90.34 89 89.68 89 89 89 C87.62101957 87.30189246 86.32040522 85.53964541 85.0625 83.75 C84.37285156 82.77546875 83.68320313 81.8009375 82.97265625 80.796875 C82.32167969 79.87390625 81.67070312 78.9509375 81 78 C80.13181641 76.89398438 80.13181641 76.89398438 79.24609375 75.765625 C78 74 78 74 78 72 C77.34 72 76.68 72 76 72 C75.67 71.01 75.34 70.02 75 69 C74.34 68.67 73.68 68.34 73 68 C72.67 67.01 72.34 66.02 72 65 C71.67 76.55 71.34 88.1 71 100 C53.51 100 36.02 100 18 100 C19.66881555 95.82796112 21.05805539 93.30981631 23.6875 89.8125 C26.96699287 85.3943767 30.18868274 80.9500482 33.3203125 76.42578125 C34.46827163 74.7679147 35.63044931 73.11982726 36.8046875 71.48046875 C37.36414063 70.68253906 37.92359375 69.88460937 38.5 69.0625 C39.0053125 68.35222656 39.510625 67.64195313 40.03125 66.91015625 C40.3509375 66.27980469 40.670625 65.64945312 41 65 C40.24849977 61.72226496 40.24849977 61.72226496 37 60 C37 59.01 37 58.02 37 57 C36.401875 56.731875 35.80375 56.46375 35.1875 56.1875 C33.00152146 55.00082594 31.58667406 53.90400887 30 52 C30 51.34 30 50.68 30 50 C29.45988281 49.79890625 28.91976562 49.5978125 28.36328125 49.390625 C25.02430007 47.42586913 22.72058639 44.62748315 20.1875 41.75 C16.07536148 37.09777566 11.80868138 32.93559428 7 29 C6.98018066 29.97831787 6.96036133 30.95663574 6.93994141 31.96459961 C6.8607501 35.78409561 6.77268174 39.60335373 6.68261719 43.42260742 C6.64556046 45.04007098 6.61056072 46.65758366 6.578125 48.27514648 C6.22826936 65.56566812 5.04785099 82.71045875 4 100 C-18.44 100 -40.88 100 -64 100 C-62.53992653 96.34981632 -61.6809813 94.30826809 -59.4375 91.375 C-57.7247752 89.12863691 -56.91663858 87.74991574 -56 85 C-55.34 85 -54.68 85 -54 85 C-53.731875 84.113125 -53.46375 83.22625 -53.1875 82.3125 C-52.0749365 79.2090334 -50.89804222 76.68889315 -49 74 C-48.34 74 -47.68 74 -47 74 C-46.690625 73.21625 -46.38125 72.4325 -46.0625 71.625 C-45 69 -45 69 -44 67 C-43.34 67 -42.68 67 -42 67 C-41.9175 66.484375 -41.835 65.96875 -41.75 65.4375 C-40.67859775 61.95544268 -38.86476395 59.12799115 -37 56 C-36.34 56 -35.68 56 -35 56 C-34.7525 55.29875 -34.505 54.5975 -34.25 53.875 C-33.12077655 51.27778607 -31.80211538 49.11 -30.1953125 46.7890625 C-28.75557989 44.6341686 -27.44410079 42.41823066 -26.125 40.1875 C-23.61527574 35.96630984 -20.96134195 31.87231362 -18.19921875 27.8125 C-16.95634781 26.0131718 -16.95634781 26.0131718 -16 24 C-15.34 24 -14.68 24 -14 24 C-13.731875 23.113125 -13.46375 22.22625 -13.1875 21.3125 C-12.0749365 18.2090334 -10.89804222 15.68889315 -9 13 C-8.34 13 -7.68 13 -7 13 C-6.690625 12.21625 -6.38125 11.4325 -6.0625 10.625 C-5 8 -5 8 -4 6 C-3.34 6 -2.68 6 -2 6 C-1.855625 5.38125 -1.71125 4.7625 -1.5625 4.125 C-1 2 -1 2 0 0 Z " fill="#DB1D2F" transform="translate(75,45)"/>
</svg>
